<?xml version="1.0" standalone="no"?>
<!DOCTYPE svg PUBLIC "-//W3C//DTD SVG 20010904//EN"
 "http://www.w3.org/TR/2001/REC-SVG-20010904/DTD/svg10.dtd">
<svg version="1.0" xmlns="http://www.w3.org/2000/svg"
 width="2000.000000pt" height="1333.000000pt" viewBox="0 0 2000.000000 1333.000000"
 preserveAspectRatio="xMidYMid meet">

<g transform="translate(0.000000,1333.000000) scale(0.100000,-0.100000)"
fill="#022b22" stroke="none">
<path d="M9859 8116 c-3 -3 -345 -26 -414 -28 -5 -1 -227 2 -493 6 -495 8
-485 8 -1037 -34 -71 -6 -173 -17 -225 -25 -52 -8 -147 -20 -210 -25 -63 -6
-139 -15 -169 -20 -29 -5 -104 -12 -165 -15 -61 -4 -167 -12 -236 -20 -69 -8
-170 -19 -225 -25 -55 -5 -221 -24 -370 -40 -148 -16 -369 -37 -489 -45 -120
-9 -280 -22 -355 -30 -75 -8 -183 -15 -241 -15 -58 0 -146 -5 -196 -10 -50 -5
-224 -17 -385 -25 -162 -9 -333 -22 -380 -30 -47 -8 -158 -19 -246 -23 -141
-8 -164 -11 -187 -30 -15 -11 -53 -26 -84 -32 -31 -6 -67 -13 -80 -16 -37 -8
-63 -82 -60 -168 3 -65 5 -71 26 -74 26 -4 51 13 61 41 6 16 10 13 31 -20 16
-24 34 -39 50 -41 28 -4 60 -29 60 -46 0 -6 11 -27 24 -47 l24 -36 -81 -11
c-290 -40 -421 -65 -519 -97 -59 -19 -119 -35 -133 -35 -78 0 -99 -133 -40
-251 15 -28 24 -53 21 -56 -6 -6 -92 -22 -261 -49 -118 -19 -227 -63 -271
-109 -30 -32 -31 -32 -125 -33 -119 0 -379 -44 -424 -72 -17 -11 -37 -31 -43
-46 -12 -24 -9 -29 40 -75 46 -42 59 -49 95 -49 34 0 47 6 72 32 28 30 32 31
55 19 22 -12 29 -12 51 3 14 9 25 21 25 26 0 5 9 14 20 20 16 8 26 5 54 -21
35 -30 37 -31 78 -17 35 11 44 18 46 41 3 26 5 27 42 21 27 -4 53 -19 80 -45
22 -22 49 -39 58 -39 19 0 45 -16 125 -77 31 -24 66 -43 79 -43 13 0 46 14 73
30 59 35 73 36 124 11 59 -31 122 -34 306 -17 94 8 238 20 320 26 83 6 170 15
195 20 25 5 150 14 279 20 232 11 308 9 169 -4 -40 -3 -140 -15 -223 -26 -154
-20 -627 -76 -885 -105 -156 -17 -267 -32 -535 -71 -219 -32 -206 -28 -256
-70 -38 -31 -48 -35 -80 -30 -43 7 -49 -2 -49 -68 0 -65 41 -136 122 -211 39
-36 83 -68 97 -72 14 -3 80 -1 146 6 66 6 140 14 165 16 25 2 -5 -6 -67 -19
-61 -12 -123 -31 -138 -40 -25 -17 -27 -22 -23 -71 4 -51 3 -53 -26 -66 -31
-14 -31 -14 -28 -84 4 -85 23 -130 63 -151 47 -24 215 -29 324 -10 50 8 134
23 188 32 96 17 98 17 125 -3 15 -11 39 -48 54 -84 14 -35 35 -71 46 -80 25
-20 189 -43 234 -34 18 4 49 18 68 31 41 28 64 30 131 8 54 -18 99 -9 99 20 0
32 92 35 112 4 14 -20 18 -21 42 -10 23 10 27 18 24 44 -3 30 0 33 32 39 18 4
39 14 46 23 7 11 27 16 57 16 42 0 52 -5 103 -51 l56 -51 58 7 c56 7 59 6 81
-24 12 -16 35 -33 50 -36 39 -9 42 -18 24 -61 -8 -20 -15 -54 -15 -75 0 -35 4
-40 41 -60 23 -11 71 -25 108 -30 70 -11 121 -27 121 -39 0 -15 118 -69 175
-79 33 -6 156 -16 273 -22 201 -9 215 -11 265 -37 50 -26 57 -27 202 -25 189
2 435 17 780 48 377 34 544 43 953 55 197 5 501 14 677 19 176 5 345 10 375
10 30 1 118 6 195 11 77 6 491 13 920 16 1661 13 1965 18 2012 38 40 17 45 17
87 1 37 -14 67 -17 158 -12 62 2 149 1 193 -4 139 -15 888 -30 1738 -35 796
-4 965 -9 1337 -38 96 -7 186 -14 200 -14 105 -6 290 -22 360 -32 47 -6 148
-12 225 -13 l140 -2 1 40 c3 69 2 69 19 55 9 -8 15 -29 15 -55 l0 -43 88 -8
c48 -4 119 -8 157 -9 39 0 203 -5 365 -9 336 -10 479 0 598 40 97 32 116 46
147 107 31 63 31 83 1 188 -55 190 -140 276 -293 299 -98 14 -160 27 -223 44
-30 9 -80 18 -110 21 -68 7 -76 12 -84 52 -6 25 -3 36 13 52 20 20 32 21 220
21 222 0 332 12 404 42 53 23 104 75 112 116 3 15 10 43 15 62 9 40 0 117 -20
173 l-14 38 46 39 c56 49 88 110 88 172 0 60 -49 220 -86 283 -40 66 -111 109
-207 126 -40 7 -74 14 -76 16 -2 1 19 27 47 57 52 55 55 64 52 141 -1 22 4 53
10 69 9 24 7 36 -10 68 -11 21 -20 53 -20 70 0 17 -13 55 -29 84 l-30 52 31
48 c40 62 49 157 24 253 -9 34 -16 73 -16 85 0 49 -34 121 -78 163 -24 24 -48
43 -53 43 -9 0 -99 42 -159 75 -38 20 -157 42 -332 60 l-158 16 -62 -26 c-109
-44 -179 -49 -414 -30 -115 9 -285 18 -379 21 -93 2 -260 11 -370 19 -110 8
-324 22 -475 30 -151 9 -296 20 -321 25 -25 5 -59 6 -75 1 -16 -4 -40 -4 -54
0 -22 7 -187 32 -290 45 -38 4 -540 29 -790 39 -85 3 -229 11 -320 17 -91 6
-336 13 -545 15 -593 6 -665 8 -1085 21 -217 7 -445 14 -505 15 -61 2 -116 6
-121 10 -11 7 -938 9 -945 3z"/>
</g>
</svg>
