<?xml version="1.0" encoding="UTF-8" standalone="no"?>
<svg
   version="1.1"
   x="0px"
   y="0px"
   viewBox="0 0 7543.3691 2930.0737"
   xml:space="preserve"
   id="svg1"
   width="7543.3691"
   height="2930.0737"
   xmlns="http://www.w3.org/2000/svg"
   xmlns:svg="http://www.w3.org/2000/svg"
   xmlns:i="http://ns.adobe.com/AdobeIllustrator/10.0/"><defs
   id="defs1" />
  <style
   type="text/css"
   id="style1">
    .st0 { fill: #000000; }
  </style>
  <g
   i:extraneous="self"
   id="g1"
   transform="matrix(0.83332418,0,0,0.24641577,-1317.5339,-4056.9383)">
    <path
   d="m 85.1,30 c -1.9,0.9 -3.8,1.8 -5.7,2.8 2.8,-3.4 1.3,-8.7 -2.5,-10.6 3.4,-2.5 6.8,-5 10,-7.8 C 91.9,10 86.6,0.5 80.2,2.9 58.4,11.1 36.5,19.3 17.6,33.1 c -7.1,5.2 -0.2,17.1 6.9,11.9 0.8,-0.6 1.7,-1.1 2.5,-1.7 1,1.3 2.3,2.4 4,2.8 -5.3,3.1 -10.4,6.5 -15.4,10.3 -6.8,5.2 -0.8,16.6 6.9,11.9 0.4,-0.2 0.8,-0.5 1.2,-0.7 -6.4,6 -12.4,12.6 -17.8,19.6 -4.2,5.4 4,13.3 9.4,9.4 3.6,-2.6 7.2,-5.1 10.8,-7.7 0.5,4.6 5.1,8.7 9.9,5.4 16.8,-11.7 33.9,-22.6 52.6,-31 8.1,-3.6 1.1,-15.4 -6.9,-11.9 -3,1.3 -5.9,2.7 -8.8,4.2 C 79.2,51 85.6,46.4 92,41.9 99.3,36.7 93.2,26.2 85.1,30 Z"
   id="path1" />
  </g>
</svg>
